<mxfile host="app.diagrams.net" modified="2022-12-18T02:56:54.700Z" agent="5.0 (Macintosh; Intel Mac OS X 10_15_7) AppleWebKit/537.36 (KHTML, like Gecko) Chrome/105.0.0.0 Safari/537.36" etag="rvMlm4fZAfh5VkffQYx0" version="20.5.3" type="github">
  <diagram id="KvzGDBuH50GmhfpmqZgW" name="第 1 页">
    <mxGraphModel dx="642" dy="224" grid="0" gridSize="10" guides="1" tooltips="1" connect="1" arrows="1" fold="1" page="0" pageScale="1" pageWidth="827" pageHeight="1169" math="0" shadow="0">
      <root>
        <mxCell id="0" />
        <mxCell id="1" parent="0" />
        <mxCell id="3EX8ikQ-sWUKUVG4hQjp-56" value="" style="group;" vertex="1" connectable="0" parent="1">
          <mxGeometry x="751" y="536" width="169" height="420" as="geometry" />
        </mxCell>
        <mxCell id="3EX8ikQ-sWUKUVG4hQjp-2" value="Tina" style="text;html=1;strokeColor=none;fillColor=none;align=center;verticalAlign=middle;whiteSpace=wrap;rounded=0;fontSize=16;" vertex="1" parent="3EX8ikQ-sWUKUVG4hQjp-56">
          <mxGeometry x="30" width="60" height="30" as="geometry" />
        </mxCell>
        <mxCell id="3EX8ikQ-sWUKUVG4hQjp-3" value="API Gateway" style="whiteSpace=wrap;html=1;fontSize=16;" vertex="1" parent="3EX8ikQ-sWUKUVG4hQjp-56">
          <mxGeometry y="95" width="120" height="60" as="geometry" />
        </mxCell>
        <mxCell id="3EX8ikQ-sWUKUVG4hQjp-4" value="" style="edgeStyle=none;curved=1;rounded=0;orthogonalLoop=1;jettySize=auto;html=1;fontSize=12;endArrow=open;startSize=14;endSize=14;sourcePerimeterSpacing=8;targetPerimeterSpacing=8;" edge="1" parent="3EX8ikQ-sWUKUVG4hQjp-56" source="3EX8ikQ-sWUKUVG4hQjp-2" target="3EX8ikQ-sWUKUVG4hQjp-3">
          <mxGeometry relative="1" as="geometry" />
        </mxCell>
        <mxCell id="3EX8ikQ-sWUKUVG4hQjp-7" value="EC2" style="whiteSpace=wrap;html=1;fontSize=16;" vertex="1" parent="3EX8ikQ-sWUKUVG4hQjp-56">
          <mxGeometry y="220" width="120" height="60" as="geometry" />
        </mxCell>
        <mxCell id="3EX8ikQ-sWUKUVG4hQjp-8" value="" style="edgeStyle=none;curved=1;rounded=0;orthogonalLoop=1;jettySize=auto;html=1;fontSize=12;endArrow=open;startSize=14;endSize=14;sourcePerimeterSpacing=8;targetPerimeterSpacing=8;" edge="1" parent="3EX8ikQ-sWUKUVG4hQjp-56" source="3EX8ikQ-sWUKUVG4hQjp-3" target="3EX8ikQ-sWUKUVG4hQjp-7">
          <mxGeometry relative="1" as="geometry" />
        </mxCell>
        <mxCell id="3EX8ikQ-sWUKUVG4hQjp-9" value="DB" style="shape=cylinder3;whiteSpace=wrap;html=1;boundedLbl=1;backgroundOutline=1;size=15;fontSize=16;" vertex="1" parent="3EX8ikQ-sWUKUVG4hQjp-56">
          <mxGeometry x="30" y="340" width="60" height="80" as="geometry" />
        </mxCell>
        <mxCell id="3EX8ikQ-sWUKUVG4hQjp-10" value="" style="edgeStyle=none;curved=1;rounded=0;orthogonalLoop=1;jettySize=auto;html=1;fontSize=12;endArrow=open;startSize=14;endSize=14;sourcePerimeterSpacing=8;targetPerimeterSpacing=8;" edge="1" parent="3EX8ikQ-sWUKUVG4hQjp-56" source="3EX8ikQ-sWUKUVG4hQjp-7" target="3EX8ikQ-sWUKUVG4hQjp-9">
          <mxGeometry relative="1" as="geometry" />
        </mxCell>
        <mxCell id="3EX8ikQ-sWUKUVG4hQjp-57" value="" style="group;" vertex="1" connectable="0" parent="1">
          <mxGeometry x="1039" y="536" width="144" height="550" as="geometry" />
        </mxCell>
        <mxCell id="3EX8ikQ-sWUKUVG4hQjp-12" value="Tina" style="text;html=1;strokeColor=none;fillColor=none;align=center;verticalAlign=middle;whiteSpace=wrap;rounded=0;fontSize=16;" vertex="1" parent="3EX8ikQ-sWUKUVG4hQjp-57">
          <mxGeometry x="30" width="60" height="30" as="geometry" />
        </mxCell>
        <mxCell id="3EX8ikQ-sWUKUVG4hQjp-14" value="API Gateway" style="whiteSpace=wrap;html=1;fontSize=16;" vertex="1" parent="3EX8ikQ-sWUKUVG4hQjp-57">
          <mxGeometry y="95" width="120" height="60" as="geometry" />
        </mxCell>
        <mxCell id="3EX8ikQ-sWUKUVG4hQjp-11" value="" style="edgeStyle=none;curved=1;rounded=0;orthogonalLoop=1;jettySize=auto;html=1;fontSize=12;endArrow=open;startSize=14;endSize=14;sourcePerimeterSpacing=8;targetPerimeterSpacing=8;" edge="1" parent="3EX8ikQ-sWUKUVG4hQjp-57" source="3EX8ikQ-sWUKUVG4hQjp-12" target="3EX8ikQ-sWUKUVG4hQjp-14">
          <mxGeometry relative="1" as="geometry" />
        </mxCell>
        <mxCell id="3EX8ikQ-sWUKUVG4hQjp-16" value="EC2" style="whiteSpace=wrap;html=1;fontSize=16;" vertex="1" parent="3EX8ikQ-sWUKUVG4hQjp-57">
          <mxGeometry y="357" width="120" height="60" as="geometry" />
        </mxCell>
        <mxCell id="3EX8ikQ-sWUKUVG4hQjp-17" value="DB" style="shape=cylinder3;whiteSpace=wrap;html=1;boundedLbl=1;backgroundOutline=1;size=15;fontSize=16;" vertex="1" parent="3EX8ikQ-sWUKUVG4hQjp-57">
          <mxGeometry x="30" y="470" width="60" height="80" as="geometry" />
        </mxCell>
        <mxCell id="3EX8ikQ-sWUKUVG4hQjp-15" value="" style="edgeStyle=none;curved=1;rounded=0;orthogonalLoop=1;jettySize=auto;html=1;fontSize=12;endArrow=open;startSize=14;endSize=14;sourcePerimeterSpacing=8;targetPerimeterSpacing=8;" edge="1" parent="3EX8ikQ-sWUKUVG4hQjp-57" source="3EX8ikQ-sWUKUVG4hQjp-16" target="3EX8ikQ-sWUKUVG4hQjp-17">
          <mxGeometry relative="1" as="geometry" />
        </mxCell>
        <mxCell id="3EX8ikQ-sWUKUVG4hQjp-20" value="" style="edgeStyle=none;curved=1;rounded=0;orthogonalLoop=1;jettySize=auto;html=1;fontSize=12;endArrow=open;startSize=14;endSize=14;sourcePerimeterSpacing=8;targetPerimeterSpacing=8;" edge="1" parent="3EX8ikQ-sWUKUVG4hQjp-57" source="3EX8ikQ-sWUKUVG4hQjp-18" target="3EX8ikQ-sWUKUVG4hQjp-16">
          <mxGeometry relative="1" as="geometry" />
        </mxCell>
        <mxCell id="3EX8ikQ-sWUKUVG4hQjp-18" value="SQS" style="shape=cylinder3;whiteSpace=wrap;html=1;boundedLbl=1;backgroundOutline=1;size=15;fontSize=16;" vertex="1" parent="3EX8ikQ-sWUKUVG4hQjp-57">
          <mxGeometry x="30" y="216" width="60" height="80" as="geometry" />
        </mxCell>
        <mxCell id="3EX8ikQ-sWUKUVG4hQjp-19" value="" style="edgeStyle=none;curved=1;rounded=0;orthogonalLoop=1;jettySize=auto;html=1;fontSize=12;endArrow=open;startSize=14;endSize=14;sourcePerimeterSpacing=8;targetPerimeterSpacing=8;" edge="1" parent="3EX8ikQ-sWUKUVG4hQjp-57" source="3EX8ikQ-sWUKUVG4hQjp-14" target="3EX8ikQ-sWUKUVG4hQjp-18">
          <mxGeometry relative="1" as="geometry" />
        </mxCell>
        <mxCell id="3EX8ikQ-sWUKUVG4hQjp-58" value="" style="group;" vertex="1" connectable="0" parent="1">
          <mxGeometry x="1259" y="536" width="398" height="642" as="geometry" />
        </mxCell>
        <mxCell id="3EX8ikQ-sWUKUVG4hQjp-22" value="Tina" style="text;html=1;strokeColor=none;fillColor=none;align=center;verticalAlign=middle;whiteSpace=wrap;rounded=0;fontSize=16;" vertex="1" parent="3EX8ikQ-sWUKUVG4hQjp-58">
          <mxGeometry x="66" width="60" height="30" as="geometry" />
        </mxCell>
        <mxCell id="3EX8ikQ-sWUKUVG4hQjp-24" value="API Gateway" style="whiteSpace=wrap;html=1;fontSize=16;" vertex="1" parent="3EX8ikQ-sWUKUVG4hQjp-58">
          <mxGeometry x="36" y="95" width="120" height="60" as="geometry" />
        </mxCell>
        <mxCell id="3EX8ikQ-sWUKUVG4hQjp-21" value="" style="edgeStyle=none;curved=1;rounded=0;orthogonalLoop=1;jettySize=auto;html=1;fontSize=12;endArrow=open;startSize=14;endSize=14;sourcePerimeterSpacing=8;targetPerimeterSpacing=8;" edge="1" parent="3EX8ikQ-sWUKUVG4hQjp-58" source="3EX8ikQ-sWUKUVG4hQjp-22" target="3EX8ikQ-sWUKUVG4hQjp-24">
          <mxGeometry relative="1" as="geometry" />
        </mxCell>
        <mxCell id="3EX8ikQ-sWUKUVG4hQjp-25" value="" style="edgeStyle=none;curved=1;rounded=0;orthogonalLoop=1;jettySize=auto;html=1;fontSize=12;endArrow=open;startSize=14;endSize=14;sourcePerimeterSpacing=8;targetPerimeterSpacing=8;" edge="1" parent="3EX8ikQ-sWUKUVG4hQjp-58" source="3EX8ikQ-sWUKUVG4hQjp-26">
          <mxGeometry relative="1" as="geometry">
            <mxPoint x="96" y="462" as="targetPoint" />
          </mxGeometry>
        </mxCell>
        <mxCell id="3EX8ikQ-sWUKUVG4hQjp-26" value="EC2" style="whiteSpace=wrap;html=1;fontSize=16;" vertex="1" parent="3EX8ikQ-sWUKUVG4hQjp-58">
          <mxGeometry x="36" y="357" width="120" height="60" as="geometry" />
        </mxCell>
        <mxCell id="3EX8ikQ-sWUKUVG4hQjp-28" value="" style="edgeStyle=none;curved=1;rounded=0;orthogonalLoop=1;jettySize=auto;html=1;fontSize=12;endArrow=open;startSize=14;endSize=14;sourcePerimeterSpacing=8;targetPerimeterSpacing=8;" edge="1" parent="3EX8ikQ-sWUKUVG4hQjp-58" source="3EX8ikQ-sWUKUVG4hQjp-29" target="3EX8ikQ-sWUKUVG4hQjp-26">
          <mxGeometry relative="1" as="geometry" />
        </mxCell>
        <mxCell id="3EX8ikQ-sWUKUVG4hQjp-29" value="SQS" style="shape=cylinder3;whiteSpace=wrap;html=1;boundedLbl=1;backgroundOutline=1;size=15;fontSize=16;" vertex="1" parent="3EX8ikQ-sWUKUVG4hQjp-58">
          <mxGeometry x="66" y="216" width="60" height="80" as="geometry" />
        </mxCell>
        <mxCell id="3EX8ikQ-sWUKUVG4hQjp-23" value="" style="edgeStyle=none;curved=1;rounded=0;orthogonalLoop=1;jettySize=auto;html=1;fontSize=12;endArrow=open;startSize=14;endSize=14;sourcePerimeterSpacing=8;targetPerimeterSpacing=8;" edge="1" parent="3EX8ikQ-sWUKUVG4hQjp-58" source="3EX8ikQ-sWUKUVG4hQjp-24" target="3EX8ikQ-sWUKUVG4hQjp-29">
          <mxGeometry relative="1" as="geometry" />
        </mxCell>
        <mxCell id="3EX8ikQ-sWUKUVG4hQjp-31" value="Kines&lt;br&gt;Data Stream" style="whiteSpace=wrap;html=1;fontSize=16;" vertex="1" parent="3EX8ikQ-sWUKUVG4hQjp-58">
          <mxGeometry x="228" y="360" width="120" height="60" as="geometry" />
        </mxCell>
        <mxCell id="3EX8ikQ-sWUKUVG4hQjp-32" value="" style="edgeStyle=none;curved=1;rounded=0;orthogonalLoop=1;jettySize=auto;html=1;fontSize=12;endArrow=open;startSize=14;endSize=14;sourcePerimeterSpacing=8;targetPerimeterSpacing=8;" edge="1" parent="3EX8ikQ-sWUKUVG4hQjp-58" source="3EX8ikQ-sWUKUVG4hQjp-26" target="3EX8ikQ-sWUKUVG4hQjp-31">
          <mxGeometry relative="1" as="geometry" />
        </mxCell>
        <mxCell id="3EX8ikQ-sWUKUVG4hQjp-33" value="Kinesis&amp;nbsp;&lt;br&gt;Data Analytics" style="whiteSpace=wrap;html=1;fontSize=16;" vertex="1" parent="3EX8ikQ-sWUKUVG4hQjp-58">
          <mxGeometry x="225" y="250" width="120" height="60" as="geometry" />
        </mxCell>
        <mxCell id="3EX8ikQ-sWUKUVG4hQjp-34" value="" style="edgeStyle=none;curved=1;rounded=0;orthogonalLoop=1;jettySize=auto;html=1;fontSize=12;endArrow=open;startSize=14;endSize=14;sourcePerimeterSpacing=8;targetPerimeterSpacing=8;" edge="1" parent="3EX8ikQ-sWUKUVG4hQjp-58" source="3EX8ikQ-sWUKUVG4hQjp-31" target="3EX8ikQ-sWUKUVG4hQjp-33">
          <mxGeometry relative="1" as="geometry" />
        </mxCell>
        <mxCell id="3EX8ikQ-sWUKUVG4hQjp-35" value="Kinesis&lt;br&gt;Data Firehose" style="whiteSpace=wrap;html=1;fontSize=16;" vertex="1" parent="3EX8ikQ-sWUKUVG4hQjp-58">
          <mxGeometry x="228" y="475" width="120" height="60" as="geometry" />
        </mxCell>
        <mxCell id="3EX8ikQ-sWUKUVG4hQjp-36" value="" style="edgeStyle=none;curved=1;rounded=0;orthogonalLoop=1;jettySize=auto;html=1;fontSize=12;endArrow=open;startSize=14;endSize=14;sourcePerimeterSpacing=8;targetPerimeterSpacing=8;" edge="1" parent="3EX8ikQ-sWUKUVG4hQjp-58" source="3EX8ikQ-sWUKUVG4hQjp-31" target="3EX8ikQ-sWUKUVG4hQjp-35">
          <mxGeometry relative="1" as="geometry" />
        </mxCell>
        <mxCell id="3EX8ikQ-sWUKUVG4hQjp-37" value="S3" style="whiteSpace=wrap;html=1;fontSize=16;" vertex="1" parent="3EX8ikQ-sWUKUVG4hQjp-58">
          <mxGeometry x="225" y="582" width="120" height="60" as="geometry" />
        </mxCell>
        <mxCell id="3EX8ikQ-sWUKUVG4hQjp-38" value="" style="edgeStyle=none;curved=1;rounded=0;orthogonalLoop=1;jettySize=auto;html=1;fontSize=12;endArrow=open;startSize=14;endSize=14;sourcePerimeterSpacing=8;targetPerimeterSpacing=8;" edge="1" parent="3EX8ikQ-sWUKUVG4hQjp-58" source="3EX8ikQ-sWUKUVG4hQjp-35" target="3EX8ikQ-sWUKUVG4hQjp-37">
          <mxGeometry relative="1" as="geometry" />
        </mxCell>
        <mxCell id="3EX8ikQ-sWUKUVG4hQjp-45" style="edgeStyle=none;curved=1;rounded=0;orthogonalLoop=1;jettySize=auto;html=1;fontSize=12;endArrow=open;startSize=14;endSize=14;sourcePerimeterSpacing=8;targetPerimeterSpacing=8;" edge="1" parent="3EX8ikQ-sWUKUVG4hQjp-58" source="3EX8ikQ-sWUKUVG4hQjp-39" target="3EX8ikQ-sWUKUVG4hQjp-22">
          <mxGeometry relative="1" as="geometry">
            <Array as="points">
              <mxPoint x="323" y="9" />
            </Array>
          </mxGeometry>
        </mxCell>
        <mxCell id="3EX8ikQ-sWUKUVG4hQjp-47" value="JWT" style="edgeLabel;html=1;align=center;verticalAlign=middle;resizable=0;points=[];fontSize=16;" vertex="1" connectable="0" parent="3EX8ikQ-sWUKUVG4hQjp-45">
          <mxGeometry x="-0.0403" y="20" relative="1" as="geometry">
            <mxPoint as="offset" />
          </mxGeometry>
        </mxCell>
        <mxCell id="3EX8ikQ-sWUKUVG4hQjp-39" value="COGNITO" style="whiteSpace=wrap;html=1;fontSize=16;" vertex="1" parent="3EX8ikQ-sWUKUVG4hQjp-58">
          <mxGeometry x="230" y="95" width="120" height="60" as="geometry" />
        </mxCell>
        <mxCell id="3EX8ikQ-sWUKUVG4hQjp-46" style="edgeStyle=none;curved=1;rounded=0;orthogonalLoop=1;jettySize=auto;html=1;entryX=0.5;entryY=0;entryDx=0;entryDy=0;fontSize=12;endArrow=open;startSize=14;endSize=14;sourcePerimeterSpacing=8;targetPerimeterSpacing=8;" edge="1" parent="3EX8ikQ-sWUKUVG4hQjp-58" source="3EX8ikQ-sWUKUVG4hQjp-22" target="3EX8ikQ-sWUKUVG4hQjp-39">
          <mxGeometry relative="1" as="geometry" />
        </mxCell>
        <mxCell id="3EX8ikQ-sWUKUVG4hQjp-48" value="USER&lt;br&gt;PWD" style="edgeLabel;html=1;align=center;verticalAlign=middle;resizable=0;points=[];fontSize=16;" vertex="1" connectable="0" parent="3EX8ikQ-sWUKUVG4hQjp-46">
          <mxGeometry x="-0.5337" y="-4" relative="1" as="geometry">
            <mxPoint as="offset" />
          </mxGeometry>
        </mxCell>
        <mxCell id="3EX8ikQ-sWUKUVG4hQjp-44" value="" style="endArrow=classic;startArrow=classic;html=1;rounded=0;fontSize=12;startSize=14;endSize=14;sourcePerimeterSpacing=8;targetPerimeterSpacing=8;curved=1;" edge="1" parent="3EX8ikQ-sWUKUVG4hQjp-58">
          <mxGeometry width="50" height="50" relative="1" as="geometry">
            <mxPoint x="156" y="125" as="sourcePoint" />
            <mxPoint x="228" y="125" as="targetPoint" />
          </mxGeometry>
        </mxCell>
        <mxCell id="3EX8ikQ-sWUKUVG4hQjp-49" value="KMS" style="text;html=1;align=center;verticalAlign=middle;resizable=0;points=[];autosize=1;strokeColor=none;fillColor=none;fontSize=16;" vertex="1" parent="3EX8ikQ-sWUKUVG4hQjp-58">
          <mxGeometry x="345" y="564" width="53" height="31" as="geometry" />
        </mxCell>
        <mxCell id="3EX8ikQ-sWUKUVG4hQjp-50" value="KMS" style="text;html=1;align=center;verticalAlign=middle;resizable=0;points=[];autosize=1;strokeColor=none;fillColor=none;fontSize=16;" vertex="1" parent="3EX8ikQ-sWUKUVG4hQjp-58">
          <mxGeometry x="335" y="452" width="53" height="31" as="geometry" />
        </mxCell>
        <mxCell id="3EX8ikQ-sWUKUVG4hQjp-51" value="KMS" style="text;html=1;align=center;verticalAlign=middle;resizable=0;points=[];autosize=1;strokeColor=none;fillColor=none;fontSize=16;" vertex="1" parent="3EX8ikQ-sWUKUVG4hQjp-58">
          <mxGeometry x="325" y="243" width="53" height="31" as="geometry" />
        </mxCell>
        <mxCell id="3EX8ikQ-sWUKUVG4hQjp-52" value="KMS" style="text;html=1;align=center;verticalAlign=middle;resizable=0;points=[];autosize=1;strokeColor=none;fillColor=none;fontSize=16;" vertex="1" parent="3EX8ikQ-sWUKUVG4hQjp-58">
          <mxGeometry x="329" y="355" width="53" height="31" as="geometry" />
        </mxCell>
        <mxCell id="3EX8ikQ-sWUKUVG4hQjp-53" value="KMS" style="text;html=1;align=center;verticalAlign=middle;resizable=0;points=[];autosize=1;strokeColor=none;fillColor=none;fontSize=16;" vertex="1" parent="3EX8ikQ-sWUKUVG4hQjp-58">
          <mxGeometry y="347" width="53" height="31" as="geometry" />
        </mxCell>
        <mxCell id="3EX8ikQ-sWUKUVG4hQjp-54" value="Redis" style="shape=tape;whiteSpace=wrap;html=1;fontSize=16;" vertex="1" parent="3EX8ikQ-sWUKUVG4hQjp-58">
          <mxGeometry x="38" y="460" width="120" height="100" as="geometry" />
        </mxCell>
        <mxCell id="3EX8ikQ-sWUKUVG4hQjp-55" value="KMS" style="text;html=1;align=center;verticalAlign=middle;resizable=0;points=[];autosize=1;strokeColor=none;fillColor=none;fontSize=16;" vertex="1" parent="3EX8ikQ-sWUKUVG4hQjp-58">
          <mxGeometry x="21" y="452" width="53" height="31" as="geometry" />
        </mxCell>
        <mxCell id="3EX8ikQ-sWUKUVG4hQjp-59" value="V1" style="swimlane;whiteSpace=wrap;html=1;fontSize=16;fillStyle=auto;fillColor=#f5f5f5;fontColor=#333333;strokeColor=#666666;swimlaneFillColor=none;" vertex="1" parent="1">
          <mxGeometry x="727" y="511" width="182" height="454" as="geometry" />
        </mxCell>
        <mxCell id="3EX8ikQ-sWUKUVG4hQjp-65" value="V2" style="swimlane;whiteSpace=wrap;html=1;fontSize=16;fillStyle=auto;fillColor=#f5f5f5;fontColor=#333333;strokeColor=#666666;swimlaneFillColor=none;" vertex="1" parent="1">
          <mxGeometry x="1015" y="510" width="171" height="588" as="geometry" />
        </mxCell>
        <mxCell id="3EX8ikQ-sWUKUVG4hQjp-66" value="V3" style="swimlane;whiteSpace=wrap;html=1;fontSize=16;fillStyle=auto;fillColor=#f5f5f5;fontColor=#333333;strokeColor=#666666;swimlaneFillColor=none;" vertex="1" parent="1">
          <mxGeometry x="1255" y="508" width="408" height="675" as="geometry" />
        </mxCell>
        <mxCell id="3EX8ikQ-sWUKUVG4hQjp-67" style="edgeStyle=orthogonalEdgeStyle;rounded=0;orthogonalLoop=1;jettySize=auto;html=1;exitX=0.5;exitY=0;exitDx=0;exitDy=0;entryX=0.5;entryY=0.01;entryDx=0;entryDy=0;entryPerimeter=0;" edge="1" parent="1" source="3EX8ikQ-sWUKUVG4hQjp-66" target="3EX8ikQ-sWUKUVG4hQjp-66">
          <mxGeometry relative="1" as="geometry" />
        </mxCell>
      </root>
    </mxGraphModel>
  </diagram>
</mxfile>
